<?xml version="1.0" standalone="no"?>
<!DOCTYPE svg PUBLIC "-//W3C//DTD SVG 20010904//EN"
 "http://www.w3.org/TR/2001/REC-SVG-20010904/DTD/svg10.dtd">
<svg version="1.0" xmlns="http://www.w3.org/2000/svg"
 width="64.000000pt" height="64.000000pt" viewBox="0 0 64.000000 64.000000"
 preserveAspectRatio="xMidYMid meet">
<metadata>
Created by potrace 1.16, written by Peter Selinger 2001-2019
</metadata>
<g transform="translate(0.000000,64.000000) scale(0.100000,-0.100000)"
fill="#000000" stroke="none">
<path d="M301 554 c-8 -23 -59 -84 -131 -159 -85 -88 -119 -130 -123 -154 -9
-45 -9 -121 1 -121 4 0 36 10 72 21 80 25 234 35 314 20 33 -6 62 -13 64 -16
3 -3 -4 -15 -16 -28 -12 -13 -22 -32 -22 -43 0 -17 8 -19 85 -19 88 0 97 5 70
41 -8 11 -15 42 -15 74 -1 80 -26 123 -134 230 -61 59 -105 112 -119 142 -12
26 -24 47 -27 48 -4 0 -12 -16 -19 -36z"/>
</g>
</svg>
