<?xml version="1.0" standalone="no"?>
<!DOCTYPE svg PUBLIC "-//W3C//DTD SVG 20010904//EN"
 "http://www.w3.org/TR/2001/REC-SVG-20010904/DTD/svg10.dtd">
<svg version="1.0" xmlns="http://www.w3.org/2000/svg"
 width="48.000000pt" height="48.000000pt" viewBox="0 0 48.000000 48.000000"
 preserveAspectRatio="xMidYMid meet">
<metadata>
Created by potrace 1.16, written by Peter Selinger 2001-2019
</metadata>
<g transform="translate(0.000000,48.000000) scale(0.100000,-0.100000)"
fill="#000000" stroke="none">
<path d="M224 408 c-3 -12 -47 -63 -97 -115 -89 -92 -90 -94 -95 -150 -5 -55
-4 -56 19 -49 83 27 160 37 225 32 101 -8 109 -12 84 -43 -11 -14 -20 -29 -20
-33 0 -3 29 -6 65 -6 43 1 65 5 65 13 0 6 -4 15 -10 18 -5 3 -10 26 -10 51 0
60 -9 74 -105 175 -46 47 -86 96 -90 107 -8 28 -22 28 -31 0z"/>
</g>
</svg>
