<?xml version="1.0" encoding="UTF-8" standalone="no"?>
<!-- Created with Inkscape (http://www.inkscape.org/) -->

<svg
   width="64mm"
   height="64mm"
   viewBox="0 0 64 64"
   version="1.1"
   id="svg5"
   sodipodi:docname="kuri.svg"
   inkscape:version="1.1 (c4e8f9ed74, 2021-05-24)"
   xmlns:inkscape="http://www.inkscape.org/namespaces/inkscape"
   xmlns:sodipodi="http://sodipodi.sourceforge.net/DTD/sodipodi-0.dtd"
   xmlns="http://www.w3.org/2000/svg"
   xmlns:svg="http://www.w3.org/2000/svg">
  <sodipodi:namedview
     id="namedview7"
     pagecolor="#ffffff"
     bordercolor="#666666"
     borderopacity="1.0"
     inkscape:pageshadow="2"
     inkscape:pageopacity="0.0"
     inkscape:pagecheckerboard="0"
     inkscape:document-units="mm"
     showgrid="false"
     inkscape:zoom="0.70710678"
     inkscape:cx="-305.47013"
     inkscape:cy="-19.79899"
     inkscape:window-width="1920"
     inkscape:window-height="1060"
     inkscape:window-x="0"
     inkscape:window-y="0"
     inkscape:window-maximized="1"
     inkscape:current-layer="layer1" />
  <defs
     id="defs2">
    <linearGradient
       id="linearGradient5256"
       inkscape:swatch="solid">
      <stop
         style="stop-color:#d0c185;stop-opacity:1;"
         offset="0"
         id="stop5254" />
    </linearGradient>
    <linearGradient
       id="linearGradient5248"
       inkscape:swatch="solid">
      <stop
         style="stop-color:#d0c185;stop-opacity:1;"
         offset="0"
         id="stop5246" />
    </linearGradient>
    <linearGradient
       id="linearGradient4967"
       inkscape:swatch="solid">
      <stop
         style="stop-color:#7c5d35;stop-opacity:1;"
         offset="0"
         id="stop4965" />
    </linearGradient>
  </defs>
  <g
     inkscape:label="レイヤー 1"
     inkscape:groupmode="layer"
     id="layer1">
    <g
       id="g5616">
      <path
         style="fill:none;stroke:#000000;stroke-width:0.264583px;stroke-linecap:butt;stroke-linejoin:miter;stroke-opacity:1"
         d="M 32.322546,-0.02089034 C 31.689022,15.473951 13.176484,26.191748 6.4826688,35.356168 c -1.81571,2.477002 -2.073566,5.781842 -3.110349,8.672762 -0.02203,2.849223 0.73372,5.651185 1.10058,8.476777"
         id="path159" />
      <path
         style="fill:none;stroke:#000000;stroke-width:0.264583px;stroke-linecap:butt;stroke-linejoin:miter;stroke-opacity:1"
         d="m 4.4728988,52.505706 c 0,0 0,0 0,0 6.1457582,10.66395 16.8690032,9.899438 25.9824712,10.855685"
         id="path862" />
      <path
         style="fill:none;stroke:#000000;stroke-width:0.264583px;stroke-linecap:butt;stroke-linejoin:miter;stroke-opacity:1"
         d="m 30.455368,63.36139 c 0.940581,0.207725 2.177016,0.05026 3.054565,0.07052"
         id="path864" />
      <path
         style="fill:none;stroke:#000000;stroke-width:0.264583px;stroke-linecap:butt;stroke-linejoin:miter;stroke-opacity:1"
         d="M 31.642753,0.04962966 C 32.276273,15.54448 50.788816,26.26227 57.482636,35.42669 c 1.81571,2.477 2.07356,5.78184 3.11034,8.67276 0.022,2.84923 -0.73372,5.65119 -1.10058,8.47678"
         id="path159-7" />
      <path
         style="fill:none;stroke:#000000;stroke-width:0.264583px;stroke-linecap:butt;stroke-linejoin:miter;stroke-opacity:1"
         d="m 59.492406,52.57623 c 0,0 0,0 0,0 -6.14576,10.66395 -16.86901,9.89944 -25.982483,10.85569"
         id="path862-5" />
      <path
         style="fill:none;stroke:#000000;stroke-width:0.264583px;stroke-linecap:butt;stroke-linejoin:miter;stroke-opacity:1"
         d="m 33.509933,63.43191 c -0.94058,0.20773 -2.17702,0.0503 -3.05457,0.0705"
         id="path864-3" />
      <path
         style="fill:none;stroke:#000000;stroke-width:0.264583px;stroke-linecap:butt;stroke-linejoin:miter;stroke-opacity:1"
         d="M 4.4728988,52.505706 C 22.502136,44.633383 43.190396,45.15606 59.492396,52.576226"
         id="path1062" />
      <path
         style="fill:#2a4d4d;fill-opacity:0;stroke:none;stroke-width:5.25558"
         d="m 4.6109319,52.173553 c 0,-0.0367 -0.1713998,-1.071216 -0.3808889,-2.298917 -0.4678124,-2.741612 -0.6480995,-4.15789 -0.6480995,-5.091303 0,-0.736198 -0.018653,-0.658569 1.2692697,-5.279236 C 5.9038077,35.727741 7.2009619,34.115222 15.462074,26.313522 22.056562,20.085763 24.7018,17.255787 27.278101,13.672292 29.34565,10.79644 31.018184,7.4141946 31.775557,4.5774036 l 0.20905,-0.7830105 0.122859,0.5489971 c 0.183621,0.8205021 0.878086,2.7933147 1.3682,3.8867292 1.593035,3.5539656 3.964892,6.9053606 7.899556,11.1619456 1.695627,1.834361 3.140887,3.251758 7.248319,7.108592 7.466745,7.011194 9.198578,9.055666 10.182931,12.021224 0.128082,0.385869 0.486447,1.64872 0.796367,2.80633 0.309917,1.15761 0.627739,2.285751 0.70627,2.506977 0.234392,0.660294 0.06217,2.404605 -0.642297,6.505475 -0.175387,1.020971 -0.337754,1.875179 -0.360809,1.898237 -0.02307,0.02307 -0.289203,-0.06855 -0.591434,-0.203568 -5.45115,-2.435299 -12.527299,-4.282913 -19.118056,-4.991817 -5.159454,-0.55495 -11.115405,-0.504772 -16.276714,0.137128 -5.72975,0.712597 -11.624064,2.225215 -16.9067398,4.338664 -0.9911688,0.396539 -1.8021273,0.690949 -1.8021273,0.654246 z"
         id="path2134" />
      <path
         style="fill:#7c5d35;fill-opacity:0;stroke:none;stroke-width:5.25558"
         d="m 4.6109319,52.173553 c 0,-0.0367 -0.1713998,-1.071216 -0.3808889,-2.298917 -0.4678124,-2.741612 -0.6480995,-4.15789 -0.6480995,-5.091303 0,-0.736198 -0.018653,-0.658569 1.2692697,-5.279236 C 5.9038077,35.727741 7.2009619,34.115222 15.462074,26.313522 22.056562,20.085763 24.7018,17.255787 27.278101,13.672292 29.34565,10.79644 31.018184,7.4141946 31.775557,4.5774036 l 0.20905,-0.7830105 0.122859,0.5489971 c 0.183621,0.8205021 0.878086,2.7933147 1.3682,3.8867292 1.593035,3.5539656 3.964892,6.9053606 7.899556,11.1619456 1.695627,1.834361 3.140887,3.251758 7.248319,7.108592 7.466745,7.011194 9.198578,9.055666 10.182931,12.021224 0.128082,0.385869 0.486447,1.64872 0.796367,2.80633 0.309917,1.15761 0.627739,2.285751 0.70627,2.506977 0.234392,0.660294 0.06217,2.404605 -0.642297,6.505475 -0.175387,1.020971 -0.337754,1.875179 -0.360809,1.898237 -0.02307,0.02307 -0.289203,-0.06855 -0.591434,-0.203568 -5.45115,-2.435299 -12.527299,-4.282913 -19.118056,-4.991817 -5.159454,-0.55495 -11.115405,-0.504772 -16.276714,0.137128 -5.72975,0.712597 -11.624064,2.225215 -16.9067398,4.338664 -0.9911688,0.396539 -1.8021273,0.690949 -1.8021273,0.654246 z"
         id="path2864" />
      <path
         style="fill:#7c5d35;fill-opacity:1;stroke:none;stroke-width:5.25558"
         d="m 4.6109319,52.173553 c 0,-0.0367 -0.1713998,-1.071216 -0.3808889,-2.298917 -0.4678124,-2.741612 -0.6480995,-4.15789 -0.6480995,-5.091303 0,-0.736198 -0.018653,-0.658569 1.2692697,-5.279236 C 5.9038077,35.727741 7.2009619,34.115222 15.462074,26.313522 22.056562,20.085763 24.7018,17.255787 27.278101,13.672292 29.34565,10.79644 31.018184,7.4141946 31.775557,4.5774036 l 0.20905,-0.7830105 0.122859,0.5489971 c 0.183621,0.8205021 0.878086,2.7933147 1.3682,3.8867292 1.593035,3.5539656 3.964892,6.9053606 7.899556,11.1619456 1.695627,1.834361 3.140887,3.251758 7.248319,7.108592 7.466745,7.011194 9.198578,9.055666 10.182931,12.021224 0.128082,0.385869 0.486447,1.64872 0.796367,2.80633 0.309917,1.15761 0.627739,2.285751 0.70627,2.506977 0.234392,0.660294 0.06217,2.404605 -0.642297,6.505475 -0.175387,1.020971 -0.337754,1.875179 -0.360809,1.898237 -0.02307,0.02307 -0.289203,-0.06855 -0.591434,-0.203568 -5.45115,-2.435299 -12.527299,-4.282913 -19.118056,-4.991817 -5.159454,-0.55495 -11.115405,-0.504772 -16.276714,0.137128 -5.72975,0.712597 -11.624064,2.225215 -16.9067398,4.338664 -0.9911688,0.396539 -1.8021273,0.690949 -1.8021273,0.654246 z"
         id="path2940" />
      <path
         style="fill:#d0c185;fill-opacity:1;stroke:none;stroke-width:5.25558"
         d="m 30.989263,63.282473 c -0.05128,-0.05523 -1.914078,-0.232476 -5.61149,-0.53394 -3.07843,-0.250994 -5.058667,-0.504004 -6.98164,-0.892032 C 12.219676,60.610184 8.0971586,57.906833 5.047878,53.103357 L 4.7140135,52.577426 6.369657,51.920051 c 6.936062,-2.753972 13.680257,-4.276413 21.25318,-4.797711 2.00058,-0.137713 6.915052,-0.138351 8.886711,-0.0011 7.659989,0.533019 14.587153,2.129827 21.234564,4.894863 0.746016,0.310308 1.388051,0.591952 1.426747,0.625871 0.03869,0.03392 -0.227119,0.500187 -0.590696,1.036151 -1.936647,2.854881 -4.147759,4.836673 -6.963203,6.241037 -3.326715,1.659384 -6.632364,2.384314 -13.330068,2.923288 -1.311961,0.105574 -2.80633,0.232627 -3.320825,0.282337 -1.213353,0.117234 -3.914926,0.224391 -3.976804,0.157739 z"
         id="path4971" />
    </g>
    <g
       id="g5603"
       transform="translate(72.146431,73.882231)">
      <path
         style="fill:none;stroke:#000000;stroke-width:0.0810689px;stroke-linecap:butt;stroke-linejoin:miter;stroke-opacity:1"
         d="m -17.680467,-30.539203 c -0.194113,4.74766 -5.866404,8.031621 -7.917407,10.839622 -0.556338,0.758961 -0.635345,1.771573 -0.953018,2.657358 -0.0068,0.873009 0.224814,1.731538 0.33722,2.597306"
         id="path159-5" />
      <path
         style="fill:none;stroke:#000000;stroke-width:0.0810689px;stroke-linecap:butt;stroke-linejoin:miter;stroke-opacity:1"
         d="m -26.213672,-14.444917 c 0,0 0,0 0,0 1.883076,3.267462 5.168706,3.033213 7.961097,3.32621"
         id="path862-6" />
      <path
         style="fill:none;stroke:#000000;stroke-width:0.0810689px;stroke-linecap:butt;stroke-linejoin:miter;stroke-opacity:1"
         d="m -18.252575,-11.118707 c 0.288196,0.06365 0.667043,0.01533 0.935927,0.02161"
         id="path864-2" />
      <path
         style="fill:none;stroke:#000000;stroke-width:0.0810689px;stroke-linecap:butt;stroke-linejoin:miter;stroke-opacity:1"
         d="m -17.888757,-30.517595 c 0.194112,4.747661 5.866403,8.03162 7.9174074,10.839623 0.5563379,0.75896 0.6353438,1.77157 0.9530166,2.657357 0.00666,0.873011 -0.2248137,1.731539 -0.3372214,2.597307"
         id="path159-7-9" />
      <path
         style="fill:none;stroke:#000000;stroke-width:0.0810689px;stroke-linecap:butt;stroke-linejoin:miter;stroke-opacity:1"
         d="m -9.3555511,-14.423308 c 0,0 0,0 0,0 -1.8830759,3.267463 -5.1687079,3.033215 -7.9611009,3.326212"
         id="path862-5-1" />
      <path
         style="fill:none;stroke:#000000;stroke-width:0.0810689px;stroke-linecap:butt;stroke-linejoin:miter;stroke-opacity:1"
         d="m -17.316648,-11.0971 c -0.288196,0.06365 -0.667045,0.01549 -0.935929,0.02161"
         id="path864-3-2" />
      <path
         style="fill:none;stroke:#000000;stroke-width:0.0810689px;stroke-linecap:butt;stroke-linejoin:miter;stroke-opacity:1"
         d="m -26.213672,-14.444917 c 5.524205,-2.412099 11.863142,-2.25195 16.8581176,0.02161"
         id="path1062-7" />
      <path
         style="fill:#2a4d4d;fill-opacity:0;stroke:none;stroke-width:1.61032"
         d="m -26.171378,-14.54669 c 0,-0.01133 -0.05252,-0.328223 -0.116709,-0.704393 -0.143346,-0.840038 -0.19858,-1.273989 -0.19858,-1.55999 0,-0.225573 -0.0057,-0.201786 0.388907,-1.61757 0.322519,-1.157086 0.719971,-1.651166 3.251196,-4.041628 2.02057,-1.908202 2.831077,-2.775313 3.620463,-3.873306 0.633501,-0.881169 1.145971,-1.917497 1.378032,-2.786697 l 0.06405,-0.239916 0.03765,0.168213 c 0.05626,0.251404 0.269049,0.85588 0.419221,1.190904 0.48811,1.088944 1.214853,2.115821 2.420445,3.42005 0.519544,0.562052 0.962375,0.996347 2.220904,2.17809 2.287831,2.148249 2.8184679,2.77468 3.120077,3.683335 0.039247,0.118225 0.1490428,0.505173 0.2440075,0.859868 0.094953,0.354694 0.1923414,0.70036 0.2164045,0.768143 0.071814,0.202316 0.019057,0.736779 -0.1968025,1.993295 -0.05374,0.312828 -0.1034821,0.57456 -0.1105453,0.581625 -0.007,0.007 -0.088606,-0.02101 -0.181217,-0.06237 -1.6702462,-0.746182 -3.8383982,-1.312295 -5.8578232,-1.529506 -1.580869,-0.170038 -3.405789,-0.154657 -4.987228,0.04201 -1.755611,0.21834 -3.561643,0.68181 -5.180269,1.329376 -0.303698,0.121507 -0.552176,0.211709 -0.552176,0.200463 z"
         id="path2134-0" />
      <path
         style="fill:#7c5d35;fill-opacity:0;stroke:none;stroke-width:1.61032"
         d="m -26.171378,-14.54669 c 0,-0.01133 -0.05252,-0.328223 -0.116709,-0.704393 -0.143346,-0.840038 -0.19858,-1.273989 -0.19858,-1.55999 0,-0.225573 -0.0057,-0.201786 0.388907,-1.61757 0.322519,-1.157086 0.719971,-1.651166 3.251196,-4.041628 2.02057,-1.908202 2.831077,-2.775313 3.620463,-3.873306 0.633501,-0.881169 1.145971,-1.917497 1.378032,-2.786697 l 0.06405,-0.239916 0.03765,0.168213 c 0.05626,0.251404 0.269049,0.85588 0.419221,1.190904 0.48811,1.088944 1.214853,2.115821 2.420445,3.42005 0.519544,0.562052 0.962375,0.996347 2.220904,2.17809 2.287831,2.148249 2.8184679,2.77468 3.120077,3.683335 0.039247,0.118225 0.1490428,0.505173 0.2440075,0.859868 0.094953,0.354694 0.1923414,0.70036 0.2164045,0.768143 0.071814,0.202316 0.019057,0.736779 -0.1968025,1.993295 -0.05374,0.312828 -0.1034821,0.57456 -0.1105453,0.581625 -0.007,0.007 -0.088606,-0.02101 -0.181217,-0.06237 -1.6702462,-0.746182 -3.8383982,-1.312295 -5.8578232,-1.529506 -1.580869,-0.170038 -3.405789,-0.154657 -4.987228,0.04201 -1.755611,0.21834 -3.561643,0.68181 -5.180269,1.329376 -0.303698,0.121507 -0.552176,0.211709 -0.552176,0.200463 z"
         id="path2864-9" />
      <path
         style="fill:#7c5d35;fill-opacity:1;stroke:none;stroke-width:1.61032"
         d="m -26.171378,-14.54669 c 0,-0.01133 -0.05252,-0.328223 -0.116709,-0.704393 -0.143346,-0.840038 -0.19858,-1.273989 -0.19858,-1.55999 0,-0.225573 -0.0057,-0.201786 0.388907,-1.61757 0.322519,-1.157086 0.719971,-1.651166 3.251196,-4.041628 2.02057,-1.908202 2.831077,-2.775313 3.620463,-3.873306 0.633501,-0.881169 1.145971,-1.917497 1.378032,-2.786697 l 0.06405,-0.239916 0.03765,0.168213 c 0.05626,0.251404 0.269049,0.85588 0.419221,1.190904 0.48811,1.088944 1.214853,2.115821 2.420445,3.42005 0.519544,0.562052 0.962375,0.996347 2.220904,2.17809 2.287831,2.148249 2.8184679,2.77468 3.120077,3.683335 0.039247,0.118225 0.1490428,0.505173 0.2440075,0.859868 0.094953,0.354694 0.1923414,0.70036 0.2164045,0.768143 0.071814,0.202316 0.019057,0.736779 -0.1968025,1.993295 -0.05374,0.312828 -0.1034821,0.57456 -0.1105453,0.581625 -0.007,0.007 -0.088606,-0.02101 -0.181217,-0.06237 -1.6702462,-0.746182 -3.8383982,-1.312295 -5.8578232,-1.529506 -1.580869,-0.170038 -3.405789,-0.154657 -4.987228,0.04201 -1.755611,0.21834 -3.561643,0.68181 -5.180269,1.329376 -0.303698,0.121507 -0.552176,0.211709 -0.552176,0.200463 z"
         id="path2940-3" />
      <path
         style="fill:#d0c185;fill-opacity:1;stroke:none;stroke-width:1.61032"
         d="m -18.088989,-11.142887 c -0.01566,-0.01693 -0.586478,-0.07123 -1.719374,-0.163602 -0.94324,-0.07691 -1.549989,-0.154424 -2.139193,-0.273322 -1.892483,-0.381874 -3.155633,-1.210187 -4.089942,-2.681985 l -0.102299,-0.161154 0.507294,-0.201422 c 2.125228,-0.843824 4.191666,-1.310303 6.512029,-1.47003 0.612984,-0.0422 2.11879,-0.0424 2.722912,-3.37e-4 2.34704,0.163319 4.469543,0.652584 6.5063261,1.499798 0.2285818,0.09509 0.4253028,0.181377 0.4371586,0.191768 0.011827,0.01033 -0.069582,0.153258 -0.1809904,0.31748 -0.5933933,0.874743 -1.2708843,1.481969 -2.1335443,1.91227 -1.019313,0.50844 -2.032173,0.73056 -4.084368,0.895703 -0.401987,0.03235 -0.859866,0.07128 -1.017509,0.08651 -0.371774,0.03592 -1.199543,0.06875 -1.218504,0.04833 z"
         id="path4971-6" />
    </g>
  </g>
</svg>
